<?xml version="1.0" encoding="UTF-8" standalone="no"?>
<!DOCTYPE svg PUBLIC "-//W3C//DTD SVG 1.1//EN" "http://www.w3.org/Graphics/SVG/1.1/DTD/svg11.dtd">
<svg xmlns:dc="http://purl.org/dc/elements/1.1/" version="1.1" xmlns="http://www.w3.org/2000/svg" xmlns:xl="http://www.w3.org/1999/xlink" viewBox="-832 -760 993 1301" width="993" height="1301">
  <defs/>
  <g id="CAMS_Architecture_2_0" stroke-opacity="1" fill-opacity="1" fill="none" stroke-dasharray="none" stroke="none">
    <title>CAMS Architecture 2.0</title>
    <g id="CAMS_Architecture_2_0_Layer_1">
      <title>Layer 1</title>
      <g id="Graphic_198">
        <path d="M -809.3223 -757.0041 L 139.84997 -757.0041 C 150.34338 -757.0041 158.84997 -748.4975 158.84997 -738.0041 L 158.84997 -402.9078 C 158.84997 -392.4144 150.34338 -383.90782 139.84997 -383.90782 L -809.3223 -383.90782 C -819.8157 -383.90782 -828.3223 -392.4144 -828.3223 -402.9078 L -828.3223 -738.0041 C -828.3223 -748.4975 -819.8157 -757.0041 -809.3223 -757.0041 Z" stroke="gray" stroke-linecap="round" stroke-linejoin="round" stroke-width="4"/>
      </g>
      <g id="Graphic_254">
        <path d="M -810.1323 -339.4851 L 139.04 -339.4851 C 149.53341 -339.4851 158.04 -330.9785 158.04 -320.4851 L 158.04 14.611166 C 158.04 25.104576 149.53341 33.611166 139.04 33.611166 L -810.1323 33.611166 C -820.6257 33.611166 -829.1323 25.104576 -829.1323 14.611166 L -829.1323 -320.4851 C -829.1323 -330.9785 -820.6257 -339.4851 -810.1323 -339.4851 Z" stroke="gray" stroke-linecap="round" stroke-linejoin="round" stroke-width="4"/>
      </g>
      <g id="Graphic_218">
        <path d="M -684.6926 -295.5372 L -369.2645 -295.5372 C -358.7711 -295.5372 -350.2645 -287.03062 -350.2645 -276.5372 L -350.2645 -202.71676 C -350.2645 -192.22335 -358.7711 -183.71676 -369.2645 -183.71676 L -684.6926 -183.71676 C -695.186 -183.71676 -703.6926 -192.22335 -703.6926 -202.71676 L -703.6926 -276.5372 C -703.6926 -287.03062 -695.186 -295.5372 -684.6926 -295.5372 Z" stroke="gray" stroke-linecap="round" stroke-linejoin="round" stroke-width="2"/>
      </g>
      <g id="Graphic_80">
        <path d="M -406.0073 -160.67794 L 113.61955 -160.67794 C 124.11296 -160.67794 132.61955 -152.17135 132.61955 -141.67794 L 132.61955 -.9434597 C 132.61955 9.549951 124.11296 18.05654 113.61955 18.05654 L -406.0073 18.05654 C -416.50073 18.05654 -425.0073 9.549951 -425.0073 -.9434597 L -425.0073 -141.67794 C -425.0073 -152.17135 -416.50073 -160.67794 -406.0073 -160.67794 Z" stroke="gray" stroke-linecap="round" stroke-linejoin="round" stroke-width="2"/>
      </g>
      <g id="Graphic_112">
        <path d="M -810.1323 72 L 139.04 72 C 149.53341 72 158.04 80.50659 158.04 91 L 158.04 202.87446 C 158.04 213.36787 149.53341 221.87446 139.04 221.87446 L -810.1323 221.87446 C -820.6257 221.87446 -829.1323 213.36787 -829.1323 202.87446 L -829.1323 91 C -829.1323 80.50659 -820.6257 72 -810.1323 72 Z" stroke="gray" stroke-linecap="round" stroke-linejoin="round" stroke-width="4"/>
      </g>
      <g id="Graphic_53">
        <path d="M -315.13246 -293.35068 L -18.125137 -293.35068 C -7.631727 -293.35068 .8748631 -284.8441 .8748631 -274.35068 L .8748631 -202.71676 C .8748631 -192.22335 -7.631727 -183.71676 -18.125137 -183.71676 L -315.13246 -183.71676 C -325.62587 -183.71676 -334.13246 -192.22335 -334.13246 -202.71676 L -334.13246 -274.35068 C -334.13246 -284.8441 -325.62587 -293.35068 -315.13246 -293.35068 Z" stroke="gray" stroke-linecap="round" stroke-linejoin="round" stroke-width="2"/>
      </g>
      <g id="Graphic_43">
        <path d="M -269.0607 -468.80267 L -150.84682 -468.80267 C -145.87626 -468.80267 -141.84682 -464.77323 -141.84682 -459.80267 L -141.84682 -415.80267 C -141.84682 -410.8321 -145.87626 -406.80267 -150.84682 -406.80267 L -269.0607 -406.80267 C -274.03125 -406.80267 -278.0607 -410.8321 -278.0607 -415.80267 L -278.0607 -459.80267 C -278.0607 -464.77323 -274.03125 -468.80267 -269.0607 -468.80267 Z" fill="#c0ffc0"/>
        <path d="M -269.0607 -468.80267 L -150.84682 -468.80267 C -145.87626 -468.80267 -141.84682 -464.77323 -141.84682 -459.80267 L -141.84682 -415.80267 C -141.84682 -410.8321 -145.87626 -406.80267 -150.84682 -406.80267 L -269.0607 -406.80267 C -274.03125 -406.80267 -278.0607 -410.8321 -278.0607 -415.80267 L -278.0607 -459.80267 C -278.0607 -464.77323 -274.03125 -468.80267 -269.0607 -468.80267 Z" stroke="gray" stroke-linecap="round" stroke-linejoin="round" stroke-width="1"/>
        <text transform="translate(-273.0607 -451.80267)" fill="black">
          <tspan font-family="Menlo" font-size="12" fill="black" x="8.922363" y="11" xml:space="preserve">SamplingPackage</tspan>
          <tspan font-family="Menlo" font-size="12" fill="black" x="34.208496" y="25" xml:space="preserve">Registry</tspan>
        </text>
      </g>
      <g id="Graphic_40">
        <path d="M -754.1311 -468.80267 L -635.91724 -468.80267 C -630.9467 -468.80267 -626.91724 -464.77323 -626.91724 -459.80267 L -626.91724 -415.80267 C -626.91724 -410.8321 -630.9467 -406.80267 -635.91724 -406.80267 L -754.1311 -406.80267 C -759.1017 -406.80267 -763.1311 -410.8321 -763.1311 -415.80267 L -763.1311 -459.80267 C -763.1311 -464.77323 -759.1017 -468.80267 -754.1311 -468.80267 Z" fill="#c0ffc0"/>
        <path d="M -754.1311 -468.80267 L -635.91724 -468.80267 C -630.9467 -468.80267 -626.91724 -464.77323 -626.91724 -459.80267 L -626.91724 -415.80267 C -626.91724 -410.8321 -630.9467 -406.80267 -635.91724 -406.80267 L -754.1311 -406.80267 C -759.1017 -406.80267 -763.1311 -410.8321 -763.1311 -415.80267 L -763.1311 -459.80267 C -763.1311 -464.77323 -759.1017 -468.80267 -754.1311 -468.80267 Z" stroke="gray" stroke-linecap="round" stroke-linejoin="round" stroke-width="1"/>
        <text transform="translate(-758.1311 -451.80267)" fill="black">
          <tspan font-family="Menlo" font-size="12" fill="black" x="23.371582" y="11" xml:space="preserve">DataManager</tspan>
          <tspan font-family="Menlo" font-size="12" fill="black" x="34.208496" y="25" xml:space="preserve">Registry</tspan>
        </text>
      </g>
      <g id="Graphic_38">
        <path d="M -810.1323 254 L 139.04 254 C 149.53341 254 158.04 262.5066 158.04 273 L 158.04 376.8106 C 158.04 387.304 149.53341 395.8106 139.04 395.8106 L -810.1323 395.8106 C -820.6257 395.8106 -829.1323 387.304 -829.1323 376.8106 L -829.1323 273 C -829.1323 262.5066 -820.6257 254 -810.1323 254 Z" stroke="gray" stroke-linecap="round" stroke-linejoin="round" stroke-width="3"/>
      </g>
      <g id="Graphic_37">
        <path d="M -395.36887 -124.25082 L -307.44887 -124.25082 C -302.4783 -124.25082 -298.44887 -120.22138 -298.44887 -115.25082 L -298.44887 -81.250815 C -298.44887 -76.28025 -302.4783 -72.250815 -307.44887 -72.250815 L -395.36887 -72.250815 C -400.33944 -72.250815 -404.36887 -76.28025 -404.36887 -81.250815 L -404.36887 -115.25082 C -404.36887 -120.22138 -400.33944 -124.25082 -395.36887 -124.25082 Z" fill="#c0ffc0"/>
        <path d="M -395.36887 -124.25082 L -307.44887 -124.25082 C -302.4783 -124.25082 -298.44887 -120.22138 -298.44887 -115.25082 L -298.44887 -81.250815 C -298.44887 -76.28025 -302.4783 -72.250815 -307.44887 -72.250815 L -395.36887 -72.250815 C -400.33944 -72.250815 -404.36887 -76.28025 -404.36887 -81.250815 L -404.36887 -115.25082 C -404.36887 -120.22138 -400.33944 -124.25082 -395.36887 -124.25082 Z" stroke="gray" stroke-linecap="round" stroke-linejoin="round" stroke-width="1"/>
        <text transform="translate(-399.36887 -112.25082)" fill="black">
          <tspan font-family="Menlo" font-size="12" fill="black" x="26.28617" y="11" xml:space="preserve">Sensor</tspan>
          <tspan font-family="Menlo" font-size="12" fill="black" x="22.673866" y="25" xml:space="preserve">Package</tspan>
        </text>
      </g>
      <g id="Graphic_29">
        <path d="M -257.98887 -52.287784 L -170.06887 -52.287784 C -165.09831 -52.287784 -161.06887 -48.258347 -161.06887 -43.287784 L -161.06887 -9.287784 C -161.06887 -4.3172214 -165.09831 -.28778415 -170.06887 -.28778415 L -257.98887 -.28778415 C -262.95944 -.28778415 -266.98887 -4.3172214 -266.98887 -9.287784 L -266.98887 -43.287784 C -266.98887 -48.258347 -262.95944 -52.287784 -257.98887 -52.287784 Z" fill="#c0c0ff"/>
        <path d="M -257.98887 -52.287784 L -170.06887 -52.287784 C -165.09831 -52.287784 -161.06887 -48.258347 -161.06887 -43.287784 L -161.06887 -9.287784 C -161.06887 -4.3172214 -165.09831 -.28778415 -170.06887 -.28778415 L -257.98887 -.28778415 C -262.95944 -.28778415 -266.98887 -4.3172214 -266.98887 -9.287784 L -266.98887 -43.287784 C -266.98887 -48.258347 -262.95944 -52.287784 -257.98887 -52.287784 Z" stroke="gray" stroke-linecap="round" stroke-linejoin="round" stroke-width="1"/>
        <text transform="translate(-261.98887 -40.287784)" fill="black">
          <tspan font-family="Menlo" font-size="12" fill="black" x="22.673866" y="11" xml:space="preserve">Context</tspan>
          <tspan font-family="Menlo" font-size="12" fill="black" x="22.673866" y="25" xml:space="preserve">Package</tspan>
        </text>
      </g>
      <g id="Graphic_54">
        <path d="M -395.36887 -52.287784 L -307.44887 -52.287784 C -302.4783 -52.287784 -298.44887 -48.258347 -298.44887 -43.287784 L -298.44887 -9.287784 C -298.44887 -4.3172214 -302.4783 -.28778415 -307.44887 -.28778415 L -395.36887 -.28778415 C -400.33944 -.28778415 -404.36887 -4.3172214 -404.36887 -9.287784 L -404.36887 -43.287784 C -404.36887 -48.258347 -400.33944 -52.287784 -395.36887 -52.287784 Z" fill="#c0ffc0"/>
        <path d="M -395.36887 -52.287784 L -307.44887 -52.287784 C -302.4783 -52.287784 -298.44887 -48.258347 -298.44887 -43.287784 L -298.44887 -9.287784 C -298.44887 -4.3172214 -302.4783 -.28778415 -307.44887 -.28778415 L -395.36887 -.28778415 C -400.33944 -.28778415 -404.36887 -4.3172214 -404.36887 -9.287784 L -404.36887 -43.287784 C -404.36887 -48.258347 -400.33944 -52.287784 -395.36887 -52.287784 Z" stroke="gray" stroke-linecap="round" stroke-linejoin="round" stroke-width="1"/>
        <text transform="translate(-399.36887 -40.287784)" fill="black">
          <tspan font-family="Menlo" font-size="12" fill="black" x="26.28617" y="11" xml:space="preserve">Device</tspan>
          <tspan font-family="Menlo" font-size="12" fill="black" x="22.673866" y="25" xml:space="preserve">Package</tspan>
        </text>
      </g>
      <g id="Graphic_56">
        <path d="M -257.98887 -122.7029 L -170.06887 -122.7029 C -165.09831 -122.7029 -161.06887 -118.67346 -161.06887 -113.7029 L -161.06887 -79.7029 C -161.06887 -74.73234 -165.09831 -70.7029 -170.06887 -70.7029 L -257.98887 -70.7029 C -262.95944 -70.7029 -266.98887 -74.73234 -266.98887 -79.7029 L -266.98887 -113.7029 C -266.98887 -118.67346 -262.95944 -122.7029 -257.98887 -122.7029 Z" fill="#c0c0ff"/>
        <path d="M -257.98887 -122.7029 L -170.06887 -122.7029 C -165.09831 -122.7029 -161.06887 -118.67346 -161.06887 -113.7029 L -161.06887 -79.7029 C -161.06887 -74.73234 -165.09831 -70.7029 -170.06887 -70.7029 L -257.98887 -70.7029 C -262.95944 -70.7029 -266.98887 -74.73234 -266.98887 -79.7029 L -266.98887 -113.7029 C -266.98887 -118.67346 -262.95944 -122.7029 -257.98887 -122.7029 Z" stroke="gray" stroke-linecap="round" stroke-linejoin="round" stroke-width="1"/>
        <text transform="translate(-261.98887 -110.7029)" fill="black">
          <tspan font-family="Menlo" font-size="12" fill="black" x="33.51078" y="11" xml:space="preserve">Apps</tspan>
          <tspan font-family="Menlo" font-size="12" fill="black" x="22.673866" y="25" xml:space="preserve">Package</tspan>
        </text>
      </g>
      <g id="Graphic_57">
        <path d="M -120.60887 -123.06136 L -32.688874 -123.06136 C -27.71831 -123.06136 -23.688874 -119.03192 -23.688874 -114.06136 L -23.688874 -80.06136 C -23.688874 -75.09079 -27.71831 -71.061356 -32.688874 -71.061356 L -120.60887 -71.061356 C -125.57944 -71.061356 -129.60887 -75.09079 -129.60887 -80.06136 L -129.60887 -114.06136 C -129.60887 -119.03192 -125.57944 -123.06136 -120.60887 -123.06136 Z" fill="#c0c0ff"/>
        <path d="M -120.60887 -123.06136 L -32.688874 -123.06136 C -27.71831 -123.06136 -23.688874 -119.03192 -23.688874 -114.06136 L -23.688874 -80.06136 C -23.688874 -75.09079 -27.71831 -71.061356 -32.688874 -71.061356 L -120.60887 -71.061356 C -125.57944 -71.061356 -129.60887 -75.09079 -129.60887 -80.06136 L -129.60887 -114.06136 C -129.60887 -119.03192 -125.57944 -123.06136 -120.60887 -123.06136 Z" stroke="gray" stroke-linecap="round" stroke-linejoin="round" stroke-width="1"/>
        <text transform="translate(-124.60887 -111.06136)" fill="black">
          <tspan font-family="Menlo" font-size="12" fill="black" x="15.449257" y="11" xml:space="preserve">Movesense</tspan>
          <tspan font-family="Menlo" font-size="12" fill="black" x="22.673866" y="25" xml:space="preserve">Package</tspan>
        </text>
      </g>
      <g id="Graphic_58">
        <path d="M -120.60887 -54.93726 L -32.688874 -54.93726 C -27.71831 -54.93726 -23.688874 -50.90782 -23.688874 -45.93726 L -23.688874 -11.93726 C -23.688874 -6.966697 -27.71831 -2.93726 -32.688874 -2.93726 L -120.60887 -2.93726 C -125.57944 -2.93726 -129.60887 -6.966697 -129.60887 -11.93726 L -129.60887 -45.93726 C -129.60887 -50.90782 -125.57944 -54.93726 -120.60887 -54.93726 Z" fill="#c0c0ff"/>
        <path d="M -120.60887 -54.93726 L -32.688874 -54.93726 C -27.71831 -54.93726 -23.688874 -50.90782 -23.688874 -45.93726 L -23.688874 -11.93726 C -23.688874 -6.966697 -27.71831 -2.93726 -32.688874 -2.93726 L -120.60887 -2.93726 C -125.57944 -2.93726 -129.60887 -6.966697 -129.60887 -11.93726 L -129.60887 -45.93726 C -129.60887 -50.90782 -125.57944 -54.93726 -120.60887 -54.93726 Z" stroke="gray" stroke-linecap="round" stroke-linejoin="round" stroke-width="1"/>
        <text transform="translate(-124.60887 -42.93726)" fill="black">
          <tspan font-family="Menlo" font-size="12" fill="black" x="26.28617" y="11" xml:space="preserve">eSense</tspan>
          <tspan font-family="Menlo" font-size="12" fill="black" x="22.673866" y="25" xml:space="preserve">Package</tspan>
        </text>
      </g>
      <g id="Graphic_59">
        <path d="M 16.771126 -55.36762 L 104.69113 -55.36762 C 109.66169 -55.36762 113.69113 -51.33818 113.69113 -46.36762 L 113.69113 -12.36762 C 113.69113 -7.3970575 109.66169 -3.3676202 104.69113 -3.3676202 L 16.771126 -3.3676202 C 11.800563 -3.3676202 7.771126 -7.3970575 7.771126 -12.36762 L 7.771126 -46.36762 C 7.771126 -51.33818 11.800563 -55.36762 16.771126 -55.36762 Z" fill="#c0c0ff"/>
        <path d="M 16.771126 -55.36762 L 104.69113 -55.36762 C 109.66169 -55.36762 113.69113 -51.33818 113.69113 -46.36762 L 113.69113 -12.36762 C 113.69113 -7.3970575 109.66169 -3.3676202 104.69113 -3.3676202 L 16.771126 -3.3676202 C 11.800563 -3.3676202 7.771126 -7.3970575 7.771126 -12.36762 L 7.771126 -46.36762 C 7.771126 -51.33818 11.800563 -55.36762 16.771126 -55.36762 Z" stroke="gray" stroke-linecap="round" stroke-linejoin="round" stroke-width="1"/>
        <text transform="translate(12.771126 -43.36762)" fill="black">
          <tspan font-family="Menlo" font-size="12" fill="black" x="37.123085" y="11" xml:space="preserve">...</tspan>
          <tspan font-family="Menlo" font-size="12" fill="black" x="22.673866" y="25" xml:space="preserve">Package</tspan>
        </text>
      </g>
      <g id="Graphic_65">
        <rect x="-167.23864" y="342.6957" width="105.92" height="34.619266" fill="#ffffc0"/>
        <rect x="-167.23864" y="342.6957" width="105.92" height="34.619266" stroke="gray" stroke-linecap="round" stroke-linejoin="round" stroke-width="1"/>
        <text transform="translate(-162.23864 353.0053)" fill="black">
          <tspan font-family="Menlo" font-size="12" fill="black" x="37.123085" y="11" xml:space="preserve">...</tspan>
        </text>
      </g>
      <g id="Graphic_64">
        <rect x="-246.32326" y="284.9961" width="105.92" height="34.619266" fill="#ffffc0"/>
        <rect x="-246.32326" y="284.9961" width="105.92" height="34.619266" stroke="gray" stroke-linecap="round" stroke-linejoin="round" stroke-width="1"/>
        <text transform="translate(-241.32326 295.30574)" fill="black">
          <tspan font-family="Menlo" font-size="12" fill="black" x="37.123085" y="11" xml:space="preserve">...</tspan>
        </text>
      </g>
      <g id="Graphic_71">
        <rect x="-476.6938" y="331.33226" width="105.92" height="34.619266" fill="#ffffc0"/>
        <rect x="-476.6938" y="331.33226" width="105.92" height="34.619266" stroke="gray" stroke-linecap="round" stroke-linejoin="round" stroke-width="1"/>
        <text transform="translate(-471.6938 341.6419)" fill="black">
          <tspan font-family="Menlo" font-size="12" fill="black" x="19.061562" y="11" xml:space="preserve">location</tspan>
        </text>
      </g>
      <g id="Graphic_70">
        <rect x="-318.91702" y="345.88268" width="105.92" height="34.619266" fill="#ffffc0"/>
        <rect x="-318.91702" y="345.88268" width="105.92" height="34.619266" stroke="gray" stroke-linecap="round" stroke-linejoin="round" stroke-width="1"/>
        <text transform="translate(-313.91702 356.1923)" fill="black">
          <tspan font-family="Menlo" font-size="12" fill="black" x="19.061562" y="11" xml:space="preserve">activity</tspan>
        </text>
      </g>
      <g id="Graphic_75">
        <rect x="-564.6357" y="275.81792" width="105.92" height="34.619266" fill="#ffffc0"/>
        <rect x="-564.6357" y="275.81792" width="105.92" height="34.619266" stroke="gray" stroke-linecap="round" stroke-linejoin="round" stroke-width="1"/>
        <text transform="translate(-559.6357 286.12756)" fill="black">
          <tspan font-family="Menlo" font-size="12" fill="black" x="22.673866" y="11" xml:space="preserve">sensors</tspan>
        </text>
      </g>
      <g id="Graphic_77">
        <rect x="-382.7817" y="275.81792" width="105.92" height="34.619266" fill="#ffffc0"/>
        <rect x="-382.7817" y="275.81792" width="105.92" height="34.619266" stroke="gray" stroke-linecap="round" stroke-linejoin="round" stroke-width="1"/>
        <text transform="translate(-377.7817 286.12756)" fill="black">
          <tspan font-family="Menlo" font-size="12" fill="black" x="33.51078" y="11" xml:space="preserve">logs</tspan>
        </text>
      </g>
      <g id="Graphic_81">
        <text transform="translate(-809.4468 265.2633)" fill="#797979">
          <tspan font-family="Menlo" font-weight="bold" font-size="16" fill="#797979" x="0" y="15" xml:space="preserve">Operating System</tspan>
        </text>
      </g>
      <g id="Graphic_30">
        <text transform="translate(-403.3365 -154.21884)" fill="#797979">
          <tspan font-family="Menlo" font-weight="bold" font-size="12" fill="#797979" x="0" y="11" xml:space="preserve">Sampling Packages</tspan>
        </text>
      </g>
      <g id="Graphic_97">
        <rect x="-112.5921" y="275.81792" width="105.92" height="34.619266" fill="#ffffc0"/>
        <rect x="-112.5921" y="275.81792" width="105.92" height="34.619266" stroke="gray" stroke-linecap="round" stroke-linejoin="round" stroke-width="1"/>
        <text transform="translate(-107.5921 286.12756)" fill="black">
          <tspan font-family="Menlo" font-size="12" fill="black" x="33.51078" y="11" xml:space="preserve">BTLE</tspan>
        </text>
      </g>
      <g id="Graphic_98">
        <rect x="-34.087388" y="346.01633" width="105.92" height="34.619266" fill="#ffffc0"/>
        <rect x="-34.087388" y="346.01633" width="105.92" height="34.619266" stroke="gray" stroke-linecap="round" stroke-linejoin="round" stroke-width="1"/>
        <text transform="translate(-29.087388 356.32596)" fill="black">
          <tspan font-family="Menlo" font-size="12" fill="black" x="26.28617" y="11" xml:space="preserve">TCP/IP</tspan>
        </text>
      </g>
      <g id="Graphic_99">
        <path d="M -399.3365 96.60215 L -311.4165 96.60215 C -306.44594 96.60215 -302.4165 100.63159 -302.4165 105.60215 L -302.4165 112.60215 C -302.4165 117.57271 -306.44594 121.60215 -311.4165 121.60215 L -399.3365 121.60215 C -404.30707 121.60215 -408.3365 117.57271 -408.3365 112.60215 L -408.3365 105.60215 C -408.3365 100.63159 -404.30707 96.60215 -399.3365 96.60215 Z" fill="#8080ff"/>
        <path d="M -399.3365 96.60215 L -311.4165 96.60215 C -306.44594 96.60215 -302.4165 100.63159 -302.4165 105.60215 L -302.4165 112.60215 C -302.4165 117.57271 -306.44594 121.60215 -311.4165 121.60215 L -399.3365 121.60215 C -404.30707 121.60215 -408.3365 117.57271 -408.3365 112.60215 L -408.3365 105.60215 C -408.3365 100.63159 -404.30707 96.60215 -399.3365 96.60215 Z" stroke="gray" stroke-linecap="round" stroke-linejoin="round" stroke-width="1"/>
        <text transform="translate(-403.3365 102.10215)" fill="black">
          <tspan font-family="Menlo" font-size="12" fill="black" x="4.612343" y="11" xml:space="preserve">sensors_plus</tspan>
        </text>
      </g>
      <g id="Graphic_103">
        <path d="M -530.5927 182.44502 L -442.6727 182.44502 C -437.7021 182.44502 -433.6727 186.47445 -433.6727 191.44502 L -433.6727 198.44502 C -433.6727 203.41558 -437.7021 207.44502 -442.6727 207.44502 L -530.5927 207.44502 C -535.56324 207.44502 -539.5927 203.41558 -539.5927 198.44502 L -539.5927 191.44502 C -539.5927 186.47445 -535.56324 182.44502 -530.5927 182.44502 Z" fill="#8080ff"/>
        <path d="M -530.5927 182.44502 L -442.6727 182.44502 C -437.7021 182.44502 -433.6727 186.47445 -433.6727 191.44502 L -433.6727 198.44502 C -433.6727 203.41558 -437.7021 207.44502 -442.6727 207.44502 L -530.5927 207.44502 C -535.56324 207.44502 -539.5927 203.41558 -539.5927 198.44502 L -539.5927 191.44502 C -539.5927 186.47445 -535.56324 182.44502 -530.5927 182.44502 Z" stroke="gray" stroke-linecap="round" stroke-linejoin="round" stroke-width="1"/>
        <text transform="translate(-534.5927 187.94502)" fill="black">
          <tspan font-family="Menlo" font-size="12" fill="black" x="15.449257" y="11" xml:space="preserve">bluetooth</tspan>
        </text>
      </g>
      <g id="Graphic_104">
        <path d="M -426.53436 139.52358 L -338.61436 139.52358 C -333.6438 139.52358 -329.61436 143.55302 -329.61436 148.52358 L -329.61436 155.52358 C -329.61436 160.49414 -333.6438 164.52358 -338.61436 164.52358 L -426.53436 164.52358 C -431.5049 164.52358 -435.53436 160.49414 -435.53436 155.52358 L -435.53436 148.52358 C -435.53436 143.55302 -431.5049 139.52358 -426.53436 139.52358 Z" fill="#8080ff"/>
        <path d="M -426.53436 139.52358 L -338.61436 139.52358 C -333.6438 139.52358 -329.61436 143.55302 -329.61436 148.52358 L -329.61436 155.52358 C -329.61436 160.49414 -333.6438 164.52358 -338.61436 164.52358 L -426.53436 164.52358 C -431.5049 164.52358 -435.53436 160.49414 -435.53436 155.52358 L -435.53436 148.52358 C -435.53436 143.55302 -431.5049 139.52358 -426.53436 139.52358 Z" stroke="gray" stroke-linecap="round" stroke-linejoin="round" stroke-width="1"/>
        <text transform="translate(-430.53436 145.02358)" fill="black">
          <tspan font-family="Menlo" font-size="12" fill="black" x="15.449257" y="11" xml:space="preserve">pedometer</tspan>
        </text>
      </g>
      <g id="Graphic_105">
        <path d="M -257.24282 100.92875 L -169.32282 100.92875 C -164.35226 100.92875 -160.32282 104.95819 -160.32282 109.92875 L -160.32282 116.92875 C -160.32282 121.89931 -164.35226 125.92875 -169.32282 125.92875 L -257.24282 125.92875 C -262.2134 125.92875 -266.24282 121.89931 -266.24282 116.92875 L -266.24282 109.92875 C -266.24282 104.95819 -262.2134 100.92875 -257.24282 100.92875 Z" fill="#8080ff"/>
        <path d="M -257.24282 100.92875 L -169.32282 100.92875 C -164.35226 100.92875 -160.32282 104.95819 -160.32282 109.92875 L -160.32282 116.92875 C -160.32282 121.89931 -164.35226 125.92875 -169.32282 125.92875 L -257.24282 125.92875 C -262.2134 125.92875 -266.24282 121.89931 -266.24282 116.92875 L -266.24282 109.92875 C -266.24282 104.95819 -262.2134 100.92875 -257.24282 100.92875 Z" stroke="gray" stroke-linecap="round" stroke-linejoin="round" stroke-width="1"/>
        <text transform="translate(-261.24282 106.42875)" fill="black">
          <tspan font-family="Menlo" font-size="12" fill="black" x="29.898476" y="11" xml:space="preserve">light</tspan>
        </text>
      </g>
      <g id="Graphic_107">
        <path d="M -257.24282 182.44502 L -169.32282 182.44502 C -164.35226 182.44502 -160.32282 186.47445 -160.32282 191.44502 L -160.32282 198.44502 C -160.32282 203.41558 -164.35226 207.44502 -169.32282 207.44502 L -257.24282 207.44502 C -262.2134 207.44502 -266.24282 203.41558 -266.24282 198.44502 L -266.24282 191.44502 C -266.24282 186.47445 -262.2134 182.44502 -257.24282 182.44502 Z" fill="#8080ff"/>
        <path d="M -257.24282 182.44502 L -169.32282 182.44502 C -164.35226 182.44502 -160.32282 186.47445 -160.32282 191.44502 L -160.32282 198.44502 C -160.32282 203.41558 -164.35226 207.44502 -169.32282 207.44502 L -257.24282 207.44502 C -262.2134 207.44502 -266.24282 203.41558 -266.24282 198.44502 L -266.24282 191.44502 C -266.24282 186.47445 -262.2134 182.44502 -257.24282 182.44502 Z" stroke="gray" stroke-linecap="round" stroke-linejoin="round" stroke-width="1"/>
        <text transform="translate(-261.24282 187.94502)" fill="black">
          <tspan font-family="Menlo" font-size="12" fill="black" x="19.061562" y="11" xml:space="preserve">location</tspan>
        </text>
      </g>
      <g id="Graphic_108">
        <path d="M 13.987424 115.08281 L 45.365487 115.08281 C 50.33605 115.08281 54.36549 119.11225 54.36549 124.08281 L 54.36549 131.08281 C 54.36549 136.05338 50.33605 140.08281 45.365487 140.08281 L 13.987424 140.08281 C 9.016861 140.08281 4.9874235 136.05338 4.9874235 131.08281 L 4.9874235 124.08281 C 4.9874235 119.11225 9.016861 115.08281 13.987424 115.08281 Z" fill="#8080ff"/>
        <path d="M 13.987424 115.08281 L 45.365487 115.08281 C 50.33605 115.08281 54.36549 119.11225 54.36549 124.08281 L 54.36549 131.08281 C 54.36549 136.05338 50.33605 140.08281 45.365487 140.08281 L 13.987424 140.08281 C 9.016861 140.08281 4.9874235 136.05338 4.9874235 131.08281 L 4.9874235 124.08281 C 4.9874235 119.11225 9.016861 115.08281 13.987424 115.08281 Z" stroke="gray" stroke-linecap="round" stroke-linejoin="round" stroke-width="1"/>
        <text transform="translate(9.987424 120.58281)" fill="black">
          <tspan font-family="Menlo" font-size="12" fill="black" x="16.076727" y="11" xml:space="preserve">…</tspan>
        </text>
      </g>
      <g id="Graphic_109">
        <path d="M -96.04514 141.68688 L -8.125137 141.68688 C -3.154574 141.68688 .8748631 145.71632 .8748631 150.68688 L .8748631 157.68688 C .8748631 162.65745 -3.154574 166.68688 -8.125137 166.68688 L -96.04514 166.68688 C -101.0157 166.68688 -105.04514 162.65745 -105.04514 157.68688 L -105.04514 150.68688 C -105.04514 145.71632 -101.0157 141.68688 -96.04514 141.68688 Z" fill="#8080ff"/>
        <path d="M -96.04514 141.68688 L -8.125137 141.68688 C -3.154574 141.68688 .8748631 145.71632 .8748631 150.68688 L .8748631 157.68688 C .8748631 162.65745 -3.154574 166.68688 -8.125137 166.68688 L -96.04514 166.68688 C -101.0157 166.68688 -105.04514 162.65745 -105.04514 157.68688 L -105.04514 150.68688 C -105.04514 145.71632 -101.0157 141.68688 -96.04514 141.68688 Z" stroke="gray" stroke-linecap="round" stroke-linejoin="round" stroke-width="1"/>
        <text transform="translate(-100.04514 147.18688)" fill="black">
          <tspan font-family="Menlo" font-size="12" fill="black" x="15.449257" y="11" xml:space="preserve">movesense</tspan>
        </text>
      </g>
      <g id="Graphic_110">
        <path d="M -257.24282 141.68688 L -169.32282 141.68688 C -164.35226 141.68688 -160.32282 145.71632 -160.32282 150.68688 L -160.32282 157.68688 C -160.32282 162.65745 -164.35226 166.68688 -169.32282 166.68688 L -257.24282 166.68688 C -262.2134 166.68688 -266.24282 162.65745 -266.24282 157.68688 L -266.24282 150.68688 C -266.24282 145.71632 -262.2134 141.68688 -257.24282 141.68688 Z" fill="#8080ff"/>
        <path d="M -257.24282 141.68688 L -169.32282 141.68688 C -164.35226 141.68688 -160.32282 145.71632 -160.32282 150.68688 L -160.32282 157.68688 C -160.32282 162.65745 -164.35226 166.68688 -169.32282 166.68688 L -257.24282 166.68688 C -262.2134 166.68688 -266.24282 162.65745 -266.24282 157.68688 L -266.24282 150.68688 C -266.24282 145.71632 -262.2134 141.68688 -257.24282 141.68688 Z" stroke="gray" stroke-linecap="round" stroke-linejoin="round" stroke-width="1"/>
        <text transform="translate(-261.24282 147.18688)" fill="black">
          <tspan font-family="Menlo" font-size="12" fill="black" x="22.673866" y="11" xml:space="preserve">weather</tspan>
        </text>
      </g>
      <g id="Graphic_113">
        <text transform="translate(-809.4468 83.03391)" fill="#797979">
          <tspan font-family="Menlo" font-weight="bold" font-size="16" fill="#797979" x="0" y="15" xml:space="preserve">Flutter Plugins</tspan>
        </text>
      </g>
      <g id="Graphic_114">
        <rect x="104.08809" y="84.89843" width="25.93107" height="29.583333" id="path"/>
        <clipPath id="clip_path">
          <use xl:href="#path"/>
        </clipPath>
        <g clip-path="url(#clip_path)">
          <image xl:href="image3.tiff" width="284" height="324" transform="translate(104.08809 84.89843) scale(.09130658)"/>
        </g>
      </g>
      <g id="Graphic_121">
        <rect x="104.08809" y="269.15373" width="39.444444" height="29.583333" id="path_2"/>
        <clipPath id="clip_path_2">
          <use xl:href="#path_2"/>
        </clipPath>
        <g clip-path="url(#clip_path_2)">
          <image xl:href="image4.tiff" width="100" height="75" transform="translate(104.08809 269.15373) scale(.39444444)"/>
        </g>
      </g>
      <g id="Graphic_124">
        <rect x="51.08809" y="269.15373" width="49.378064" height="29.583333" id="path_3"/>
        <clipPath id="clip_path_3">
          <use xl:href="#path_3"/>
        </clipPath>
        <g clip-path="url(#clip_path_3)">
          <image xl:href="image7.tiff" width="227" height="136" transform="translate(51.08809 269.15373) scale(.2175245)"/>
        </g>
      </g>
      <g id="Graphic_106">
        <path d="M -120.60887 100.92875 L -32.688874 100.92875 C -27.71831 100.92875 -23.688874 104.95819 -23.688874 109.92875 L -23.688874 116.92875 C -23.688874 121.89931 -27.71831 125.92875 -32.688874 125.92875 L -120.60887 125.92875 C -125.57944 125.92875 -129.60887 121.89931 -129.60887 116.92875 L -129.60887 109.92875 C -129.60887 104.95819 -125.57944 100.92875 -120.60887 100.92875 Z" fill="#8080ff"/>
        <path d="M -120.60887 100.92875 L -32.688874 100.92875 C -27.71831 100.92875 -23.688874 104.95819 -23.688874 109.92875 L -23.688874 116.92875 C -23.688874 121.89931 -27.71831 125.92875 -32.688874 125.92875 L -120.60887 125.92875 C -125.57944 125.92875 -129.60887 121.89931 -129.60887 116.92875 L -129.60887 109.92875 C -129.60887 104.95819 -125.57944 100.92875 -120.60887 100.92875 Z" stroke="gray" stroke-linecap="round" stroke-linejoin="round" stroke-width="1"/>
        <text transform="translate(-124.60887 106.42875)" fill="black">
          <tspan font-family="Menlo" font-size="12" fill="black" x="26.28617" y="11" xml:space="preserve">health</tspan>
        </text>
      </g>
      <g id="Graphic_141">
        <path d="M -131.1375 182.44502 L -43.2175 182.44502 C -38.246937 182.44502 -34.2175 186.47445 -34.2175 191.44502 L -34.2175 198.44502 C -34.2175 203.41558 -38.246937 207.44502 -43.2175 207.44502 L -131.1375 207.44502 C -136.10806 207.44502 -140.1375 203.41558 -140.1375 198.44502 L -140.1375 191.44502 C -140.1375 186.47445 -136.10806 182.44502 -131.1375 182.44502 Z" fill="#8080ff"/>
        <path d="M -131.1375 182.44502 L -43.2175 182.44502 C -38.246937 182.44502 -34.2175 186.47445 -34.2175 191.44502 L -34.2175 198.44502 C -34.2175 203.41558 -38.246937 207.44502 -43.2175 207.44502 L -131.1375 207.44502 C -136.10806 207.44502 -140.1375 203.41558 -140.1375 198.44502 L -140.1375 191.44502 C -140.1375 186.47445 -136.10806 182.44502 -131.1375 182.44502 Z" stroke="gray" stroke-linecap="round" stroke-linejoin="round" stroke-width="1"/>
        <text transform="translate(-135.1375 187.94502)" fill="black">
          <tspan font-family="Menlo" font-size="12" fill="black" x="26.28617" y="11" xml:space="preserve">esense</tspan>
        </text>
      </g>
      <g id="Graphic_146">
        <path d="M -775.6075 -160.67794 L -460.17936 -160.67794 C -449.68594 -160.67794 -441.17936 -152.17135 -441.17936 -141.67794 L -441.17936 -.9434597 C -441.17936 9.549951 -449.68594 18.05654 -460.17936 18.05654 L -775.6075 18.05654 C -786.1009 18.05654 -794.6075 9.549951 -794.6075 -.9434597 L -794.6075 -141.67794 C -794.6075 -152.17135 -786.1009 -160.67794 -775.6075 -160.67794 Z" stroke="gray" stroke-linecap="round" stroke-linejoin="round" stroke-width="2"/>
      </g>
      <g id="Graphic_145">
        <text transform="translate(-770.9162 -155.67794)" fill="#797979">
          <tspan font-family="Menlo" font-weight="bold" font-size="12" fill="#797979" x="0" y="11" xml:space="preserve">Data Managers</tspan>
        </text>
      </g>
      <g id="Graphic_147">
        <text transform="translate(-313.91702 -288.35068)" fill="#797979">
          <tspan font-family="Menlo" font-weight="bold" font-size="12" fill="#797979" x="0" y="11" xml:space="preserve">Deployment Services</tspan>
        </text>
      </g>
      <g id="Graphic_148">
        <path d="M -304.8633 -266.8991 L -186.64944 -266.8991 C -181.67888 -266.8991 -177.64944 -262.86965 -177.64944 -257.8991 L -177.64944 -213.8991 C -177.64944 -208.92853 -181.67888 -204.8991 -186.64944 -204.8991 L -304.8633 -204.8991 C -309.83387 -204.8991 -313.8633 -208.92853 -313.8633 -213.8991 L -313.8633 -257.8991 C -313.8633 -262.86965 -309.83387 -266.8991 -304.8633 -266.8991 Z" fill="#c0ffc0"/>
        <path d="M -304.8633 -266.8991 L -186.64944 -266.8991 C -181.67888 -266.8991 -177.64944 -262.86965 -177.64944 -257.8991 L -177.64944 -213.8991 C -177.64944 -208.92853 -181.67888 -204.8991 -186.64944 -204.8991 L -304.8633 -204.8991 C -309.83387 -204.8991 -313.8633 -208.92853 -313.8633 -213.8991 L -313.8633 -257.8991 C -313.8633 -262.86965 -309.83387 -266.8991 -304.8633 -266.8991 Z" stroke="gray" stroke-linecap="round" stroke-linejoin="round" stroke-width="1"/>
        <text transform="translate(-308.8633 -256.8991)" fill="black">
          <tspan font-family="Menlo" font-size="12" fill="black" x="26.983887" y="11" xml:space="preserve">Smartphone </tspan>
          <tspan font-family="Menlo" font-size="12" fill="black" x="26.983887" y="25" xml:space="preserve">Deployment </tspan>
          <tspan font-family="Menlo" font-size="12" fill="black" x="37.8208" y="39" xml:space="preserve">Service</tspan>
        </text>
      </g>
      <g id="Graphic_149">
        <path d="M -147.62763 -263.37014 L -29.413764 -263.37014 C -24.4432 -263.37014 -20.413764 -259.3407 -20.413764 -254.37014 L -20.413764 -212.38656 C -20.413764 -207.416 -24.4432 -203.38656 -29.413764 -203.38656 L -147.62763 -203.38656 C -152.5982 -203.38656 -156.62763 -207.416 -156.62763 -212.38656 L -156.62763 -254.37014 C -156.62763 -259.3407 -152.5982 -263.37014 -147.62763 -263.37014 Z" fill="#c0c0ff"/>
        <path d="M -147.62763 -263.37014 L -29.413764 -263.37014 C -24.4432 -263.37014 -20.413764 -259.3407 -20.413764 -254.37014 L -20.413764 -212.38656 C -20.413764 -207.416 -24.4432 -203.38656 -29.413764 -203.38656 L -147.62763 -203.38656 C -152.5982 -203.38656 -156.62763 -207.416 -156.62763 -212.38656 L -156.62763 -254.37014 C -156.62763 -259.3407 -152.5982 -263.37014 -147.62763 -263.37014 Z" stroke="gray" stroke-linecap="round" stroke-linejoin="round" stroke-width="1"/>
        <text transform="translate(-151.62763 -247.37835)" fill="black">
          <tspan font-family="Menlo" font-size="12" fill="black" x="12.534668" y="11" xml:space="preserve">CarpDeployment </tspan>
          <tspan font-family="Menlo" font-size="12" fill="black" x="37.8208" y="25" xml:space="preserve">Service</tspan>
        </text>
      </g>
      <g id="Graphic_49">
        <path d="M -766.9162 -126.3808 L -639.9162 -126.3808 C -634.9457 -126.3808 -630.9162 -122.35137 -630.9162 -117.38081 L -630.9162 -83.38081 C -630.9162 -78.410245 -634.9457 -74.38081 -639.9162 -74.38081 L -766.9162 -74.38081 C -771.8868 -74.38081 -775.9162 -78.410245 -775.9162 -83.38081 L -775.9162 -117.38081 C -775.9162 -122.35137 -771.8868 -126.3808 -766.9162 -126.3808 Z" fill="#c0ffc0"/>
        <path d="M -766.9162 -126.3808 L -639.9162 -126.3808 C -634.9457 -126.3808 -630.9162 -122.35137 -630.9162 -117.38081 L -630.9162 -83.38081 C -630.9162 -78.410245 -634.9457 -74.38081 -639.9162 -74.38081 L -766.9162 -74.38081 C -771.8868 -74.38081 -775.9162 -78.410245 -775.9162 -83.38081 L -775.9162 -117.38081 C -775.9162 -122.35137 -771.8868 -126.3808 -766.9162 -126.3808 Z" stroke="gray" stroke-linecap="round" stroke-linejoin="round" stroke-width="1"/>
        <text transform="translate(-770.9162 -107.38081)" fill="black">
          <tspan font-family="Menlo" font-size="12" fill="black" x="13.31543" y="11" xml:space="preserve">FileDataManager</tspan>
        </text>
      </g>
      <g id="Graphic_47">
        <path d="M -599.9162 -60.79298 L -472.91623 -60.79298 C -467.94567 -60.79298 -463.91623 -56.76354 -463.91623 -51.79298 L -463.91623 -17.79298 C -463.91623 -12.822417 -467.94567 -8.792979 -472.91623 -8.792979 L -599.9162 -8.792979 C -604.8868 -8.792979 -608.9162 -12.822417 -608.9162 -17.79298 L -608.9162 -51.79298 C -608.9162 -56.76354 -604.8868 -60.79298 -599.9162 -60.79298 Z" fill="#c0c0ff"/>
        <path d="M -599.9162 -60.79298 L -472.91623 -60.79298 C -467.94567 -60.79298 -463.91623 -56.76354 -463.91623 -51.79298 L -463.91623 -17.79298 C -463.91623 -12.822417 -467.94567 -8.792979 -472.91623 -8.792979 L -599.9162 -8.792979 C -604.8868 -8.792979 -608.9162 -12.822417 -608.9162 -17.79298 L -608.9162 -51.79298 C -608.9162 -56.76354 -604.8868 -60.79298 -599.9162 -60.79298 Z" stroke="gray" stroke-linecap="round" stroke-linejoin="round" stroke-width="1"/>
        <text transform="translate(-603.9162 -48.79298)" fill="black">
          <tspan font-family="Menlo" font-size="12" fill="black" x="38.601562" y="11" xml:space="preserve">Firebase</tspan>
          <tspan font-family="Menlo" font-size="12" fill="black" x="27.76465" y="25" xml:space="preserve">DataManager</tspan>
        </text>
      </g>
      <g id="Graphic_46">
        <path d="M -766.9162 -60.79298 L -639.9162 -60.79298 C -634.9457 -60.79298 -630.9162 -56.76354 -630.9162 -51.79298 L -630.9162 -17.79298 C -630.9162 -12.822417 -634.9457 -8.792979 -639.9162 -8.792979 L -766.9162 -8.792979 C -771.8868 -8.792979 -775.9162 -12.822417 -775.9162 -17.79298 L -775.9162 -51.79298 C -775.9162 -56.76354 -771.8868 -60.79298 -766.9162 -60.79298 Z" fill="#c0c0ff"/>
        <path d="M -766.9162 -60.79298 L -639.9162 -60.79298 C -634.9457 -60.79298 -630.9162 -56.76354 -630.9162 -51.79298 L -630.9162 -17.79298 C -630.9162 -12.822417 -634.9457 -8.792979 -639.9162 -8.792979 L -766.9162 -8.792979 C -771.8868 -8.792979 -775.9162 -12.822417 -775.9162 -17.79298 L -775.9162 -51.79298 C -775.9162 -56.76354 -771.8868 -60.79298 -766.9162 -60.79298 Z" stroke="gray" stroke-linecap="round" stroke-linejoin="round" stroke-width="1"/>
        <text transform="translate(-770.9162 -41.79298)" fill="black">
          <tspan font-family="Menlo" font-size="12" fill="black" x="13.31543" y="11" xml:space="preserve">CarpDataManager</tspan>
        </text>
      </g>
      <g id="Graphic_176">
        <path d="M -599.9162 -126.3808 L -472.91623 -126.3808 C -467.94567 -126.3808 -463.91623 -122.35137 -463.91623 -117.38081 L -463.91623 -83.38081 C -463.91623 -78.410245 -467.94567 -74.38081 -472.91623 -74.38081 L -599.9162 -74.38081 C -604.8868 -74.38081 -608.9162 -78.410245 -608.9162 -83.38081 L -608.9162 -117.38081 C -608.9162 -122.35137 -604.8868 -126.3808 -599.9162 -126.3808 Z" fill="#c0ffc0"/>
        <path d="M -599.9162 -126.3808 L -472.91623 -126.3808 C -467.94567 -126.3808 -463.91623 -122.35137 -463.91623 -117.38081 L -463.91623 -83.38081 C -463.91623 -78.410245 -467.94567 -74.38081 -472.91623 -74.38081 L -599.9162 -74.38081 C -604.8868 -74.38081 -608.9162 -78.410245 -608.9162 -83.38081 L -608.9162 -117.38081 C -608.9162 -122.35137 -604.8868 -126.3808 -599.9162 -126.3808 Z" stroke="gray" stroke-linecap="round" stroke-linejoin="round" stroke-width="1"/>
        <text transform="translate(-603.9162 -107.38081)" fill="black">
          <tspan font-family="Menlo" font-size="12" fill="black" x="6.09082" y="11" xml:space="preserve">SQLiteDataManager</tspan>
        </text>
      </g>
      <g id="Graphic_179">
        <path d="M -590.299 -468.80267 L -472.0851 -468.80267 C -467.11454 -468.80267 -463.0851 -464.77323 -463.0851 -459.80267 L -463.0851 -415.80267 C -463.0851 -410.8321 -467.11454 -406.80267 -472.0851 -406.80267 L -590.299 -406.80267 C -595.2695 -406.80267 -599.299 -410.8321 -599.299 -415.80267 L -599.299 -459.80267 C -599.299 -464.77323 -595.2695 -468.80267 -590.299 -468.80267 Z" fill="#c0ffc0"/>
        <path d="M -590.299 -468.80267 L -472.0851 -468.80267 C -467.11454 -468.80267 -463.0851 -464.77323 -463.0851 -459.80267 L -463.0851 -415.80267 C -463.0851 -410.8321 -467.11454 -406.80267 -472.0851 -406.80267 L -590.299 -406.80267 C -595.2695 -406.80267 -599.299 -410.8321 -599.299 -415.80267 L -599.299 -459.80267 C -599.299 -464.77323 -595.2695 -468.80267 -590.299 -468.80267 Z" stroke="gray" stroke-linecap="round" stroke-linejoin="round" stroke-width="1"/>
        <text transform="translate(-594.299 -451.80267)" fill="black">
          <tspan font-family="Menlo" font-size="12" fill="black" x="37.8208" y="11" xml:space="preserve">AppTask</tspan>
          <tspan font-family="Menlo" font-size="12" fill="black" x="26.983887" y="25" xml:space="preserve">Controller</tspan>
        </text>
      </g>
      <g id="Graphic_182">
        <path d="M 16.771126 -121.77354 L 104.69113 -121.77354 C 109.66169 -121.77354 113.69113 -117.7441 113.69113 -112.77354 L 113.69113 -78.77354 C 113.69113 -73.80298 109.66169 -69.77354 104.69113 -69.77354 L 16.771126 -69.77354 C 11.800563 -69.77354 7.771126 -73.80298 7.771126 -78.77354 L 7.771126 -112.77354 C 7.771126 -117.7441 11.800563 -121.77354 16.771126 -121.77354 Z" fill="#c0c0ff"/>
        <path d="M 16.771126 -121.77354 L 104.69113 -121.77354 C 109.66169 -121.77354 113.69113 -117.7441 113.69113 -112.77354 L 113.69113 -78.77354 C 113.69113 -73.80298 109.66169 -69.77354 104.69113 -69.77354 L 16.771126 -69.77354 C 11.800563 -69.77354 7.771126 -73.80298 7.771126 -78.77354 L 7.771126 -112.77354 C 7.771126 -117.7441 11.800563 -121.77354 16.771126 -121.77354 Z" stroke="gray" stroke-linecap="round" stroke-linejoin="round" stroke-width="1"/>
        <text transform="translate(12.771126 -109.77354)" fill="black">
          <tspan font-family="Menlo" font-size="12" fill="black" x="26.28617" y="11" xml:space="preserve">Health</tspan>
          <tspan font-family="Menlo" font-size="12" fill="black" x="22.673866" y="25" xml:space="preserve">Package</tspan>
        </text>
      </g>
      <g id="Graphic_183">
        <path d="M 46.94965 164.73739 L 78.32771 164.73739 C 83.29827 164.73739 87.32771 168.76682 87.32771 173.73739 L 87.32771 180.73739 C 87.32771 185.70795 83.29827 189.73739 78.32771 189.73739 L 46.94965 189.73739 C 41.979085 189.73739 37.949648 185.70795 37.949648 180.73739 L 37.949648 173.73739 C 37.949648 168.76682 41.979085 164.73739 46.94965 164.73739 Z" fill="#8080ff"/>
        <path d="M 46.94965 164.73739 L 78.32771 164.73739 C 83.29827 164.73739 87.32771 168.76682 87.32771 173.73739 L 87.32771 180.73739 C 87.32771 185.70795 83.29827 189.73739 78.32771 189.73739 L 46.94965 189.73739 C 41.979085 189.73739 37.949648 185.70795 37.949648 180.73739 L 37.949648 173.73739 C 37.949648 168.76682 41.979085 164.73739 46.94965 164.73739 Z" stroke="gray" stroke-linecap="round" stroke-linejoin="round" stroke-width="1"/>
        <text transform="translate(42.94965 170.23739)" fill="black">
          <tspan font-family="Menlo" font-size="12" fill="black" x="16.076727" y="11" xml:space="preserve">…</tspan>
        </text>
      </g>
      <g id="Graphic_194">
        <rect x="-548.372" y="450.45394" width="425.65174" height="89.54606" stroke="gray" stroke-linecap="round" stroke-linejoin="round" stroke-width="2"/>
      </g>
      <g id="Graphic_192">
        <text transform="translate(-242.0796 503.9021)" fill="#797979">
          <tspan font-family="Helvetica Neue" font-size="11" fill="#797979" x="17763568e-20" y="10" xml:space="preserve">OS component</tspan>
        </text>
      </g>
      <g id="Graphic_191">
        <path d="M -518.50033 462.38284 L -497.0559 462.38284 C -492.0853 462.38284 -488.0559 466.4123 -488.0559 471.38284 L -488.0559 475.69084 C -488.0559 480.6614 -492.0853 484.69084 -497.0559 484.69084 L -518.50033 484.69084 C -523.4709 484.69084 -527.50033 480.6614 -527.50033 475.69084 L -527.50033 471.38284 C -527.50033 466.4123 -523.4709 462.38284 -518.50033 462.38284 Z" fill="#c0ffc0"/>
        <path d="M -518.50033 462.38284 L -497.0559 462.38284 C -492.0853 462.38284 -488.0559 466.4123 -488.0559 471.38284 L -488.0559 475.69084 C -488.0559 480.6614 -492.0853 484.69084 -497.0559 484.69084 L -518.50033 484.69084 C -523.4709 484.69084 -527.50033 480.6614 -527.50033 475.69084 L -527.50033 471.38284 C -527.50033 466.4123 -523.4709 462.38284 -518.50033 462.38284 Z" stroke="gray" stroke-linecap="round" stroke-linejoin="round" stroke-width="1"/>
        <text transform="translate(-522.50033 466.53684)" fill="#797979">
          <tspan font-family="Menlo" font-size="12" fill="#797979" x="11.109918" y="11" xml:space="preserve">…</tspan>
        </text>
      </g>
      <g id="Graphic_190">
        <text transform="translate(-481.2141 467.38284)" fill="#797979">
          <tspan font-family="Helvetica Neue" font-size="11" fill="#797979" x="0" y="10" xml:space="preserve">CAMS core component</tspan>
        </text>
      </g>
      <g id="Graphic_189">
        <path d="M -518.50033 496.35826 L -497.0559 496.35826 C -492.0853 496.35826 -488.0559 500.3877 -488.0559 505.35826 L -488.0559 509.66626 C -488.0559 514.6368 -492.0853 518.66626 -497.0559 518.66626 L -518.50033 518.66626 C -523.4709 518.66626 -527.50033 514.6368 -527.50033 509.66626 L -527.50033 505.35826 C -527.50033 500.3877 -523.4709 496.35826 -518.50033 496.35826 Z" fill="#c0c0ff"/>
        <path d="M -518.50033 496.35826 L -497.0559 496.35826 C -492.0853 496.35826 -488.0559 500.3877 -488.0559 505.35826 L -488.0559 509.66626 C -488.0559 514.6368 -492.0853 518.66626 -497.0559 518.66626 L -518.50033 518.66626 C -523.4709 518.66626 -527.50033 514.6368 -527.50033 509.66626 L -527.50033 505.35826 C -527.50033 500.3877 -523.4709 496.35826 -518.50033 496.35826 Z" stroke="gray" stroke-linecap="round" stroke-linejoin="round" stroke-width="1"/>
        <text transform="translate(-522.50033 500.51226)" fill="#797979">
          <tspan font-family="Menlo" font-size="12" fill="#797979" x="11.109918" y="11" xml:space="preserve">…</tspan>
        </text>
      </g>
      <g id="Graphic_188">
        <text transform="translate(-481.2141 501.35826)" fill="#797979">
          <tspan font-family="Helvetica Neue" font-size="11" fill="#797979" x="3410605e-19" y="10" xml:space="preserve">External CAMS component</tspan>
        </text>
      </g>
      <g id="Graphic_187">
        <path d="M -281.49715 462.57777 L -260.0527 462.57777 C -255.08214 462.57777 -251.0527 466.6072 -251.0527 471.57777 L -251.0527 475.88577 C -251.0527 480.85633 -255.08214 484.88577 -260.0527 484.88577 L -281.49715 484.88577 C -286.4677 484.88577 -290.49715 480.85633 -290.49715 475.88577 L -290.49715 471.57777 C -290.49715 466.6072 -286.4677 462.57777 -281.49715 462.57777 Z" fill="#8080ff"/>
        <path d="M -281.49715 462.57777 L -260.0527 462.57777 C -255.08214 462.57777 -251.0527 466.6072 -251.0527 471.57777 L -251.0527 475.88577 C -251.0527 480.85633 -255.08214 484.88577 -260.0527 484.88577 L -281.49715 484.88577 C -286.4677 484.88577 -290.49715 480.85633 -290.49715 475.88577 L -290.49715 471.57777 C -290.49715 466.6072 -286.4677 462.57777 -281.49715 462.57777 Z" stroke="gray" stroke-linecap="round" stroke-linejoin="round" stroke-width="1"/>
        <text transform="translate(-285.49715 466.73177)" fill="#797979">
          <tspan font-family="Menlo" font-size="12" fill="#797979" x="11.109918" y="11" xml:space="preserve">…</tspan>
        </text>
      </g>
      <g id="Graphic_186">
        <text transform="translate(-244.2109 467.38284)" fill="#797979">
          <tspan font-family="Helvetica Neue" font-size="11" fill="#797979" x="8100187e-19" y="10" xml:space="preserve">Flutter plugin</tspan>
        </text>
      </g>
      <g id="Graphic_197">
        <text transform="translate(-809.4468 -328.6321)" fill="#797979">
          <tspan font-family="Menlo" font-weight="bold" font-size="16" fill="#797979" x="0" y="15" xml:space="preserve">Infrastructure</tspan>
        </text>
      </g>
      <g id="Graphic_201">
        <path d="M -426.46683 -468.80267 L -308.25296 -468.80267 C -303.2824 -468.80267 -299.25296 -464.77323 -299.25296 -459.80267 L -299.25296 -415.80267 C -299.25296 -410.8321 -303.2824 -406.80267 -308.25296 -406.80267 L -426.46683 -406.80267 C -431.4374 -406.80267 -435.4668 -410.8321 -435.4668 -415.80267 L -435.4668 -459.80267 C -435.4668 -464.77323 -431.4374 -468.80267 -426.46683 -468.80267 Z" fill="#c0ffc0"/>
        <path d="M -426.46683 -468.80267 L -308.25296 -468.80267 C -303.2824 -468.80267 -299.25296 -464.77323 -299.25296 -459.80267 L -299.25296 -415.80267 C -299.25296 -410.8321 -303.2824 -406.80267 -308.25296 -406.80267 L -426.46683 -406.80267 C -431.4374 -406.80267 -435.4668 -410.8321 -435.4668 -415.80267 L -435.4668 -459.80267 C -435.4668 -464.77323 -431.4374 -468.80267 -426.46683 -468.80267 Z" stroke="gray" stroke-linecap="round" stroke-linejoin="round" stroke-width="1"/>
        <text transform="translate(-430.46683 -451.80267)" fill="black">
          <tspan font-family="Menlo" font-size="12" fill="black" x="19.759277" y="11" xml:space="preserve">Notification</tspan>
          <tspan font-family="Menlo" font-size="12" fill="black" x="37.8208" y="25" xml:space="preserve">Manager</tspan>
        </text>
      </g>
      <g id="Graphic_210">
        <text transform="translate(-679.4653 -290.5372)" fill="#797979">
          <tspan font-family="Menlo" font-weight="bold" font-size="12" fill="#797979" x="0" y="11" xml:space="preserve">Services</tspan>
        </text>
      </g>
      <g id="Graphic_212">
        <path d="M -675.4653 -264.37835 L -549.04137 -264.37835 C -544.0708 -264.37835 -540.04137 -260.3489 -540.04137 -255.37835 L -540.04137 -211.37835 C -540.04137 -206.40778 -544.0708 -202.37835 -549.04137 -202.37835 L -675.4653 -202.37835 C -680.4359 -202.37835 -684.4653 -206.40778 -684.4653 -211.37835 L -684.4653 -255.37835 C -684.4653 -260.3489 -680.4359 -264.37835 -675.4653 -264.37835 Z" fill="#c0ffc0"/>
        <path d="M -675.4653 -264.37835 L -549.04137 -264.37835 C -544.0708 -264.37835 -540.04137 -260.3489 -540.04137 -255.37835 L -540.04137 -211.37835 C -540.04137 -206.40778 -544.0708 -202.37835 -549.04137 -202.37835 L -675.4653 -202.37835 C -680.4359 -202.37835 -684.4653 -206.40778 -684.4653 -211.37835 L -684.4653 -255.37835 C -684.4653 -260.3489 -680.4359 -264.37835 -675.4653 -264.37835 Z" stroke="gray" stroke-linecap="round" stroke-linejoin="round" stroke-width="1"/>
        <text transform="translate(-679.4653 -247.37835)" fill="black">
          <tspan font-family="Menlo" font-size="12" fill="black" x="31.08892" y="11" xml:space="preserve">Background</tspan>
          <tspan font-family="Menlo" font-size="12" fill="black" x="41.925835" y="25" xml:space="preserve">Service</tspan>
        </text>
      </g>
      <g id="Graphic_214">
        <path d="M -509.04137 -264.37835 L -379.7738 -264.37835 C -374.80323 -264.37835 -370.7738 -260.3489 -370.7738 -255.37835 L -370.7738 -211.37835 C -370.7738 -206.40778 -374.80323 -202.37835 -379.7738 -202.37835 L -509.04137 -202.37835 C -514.0119 -202.37835 -518.04137 -206.40778 -518.04137 -211.37835 L -518.04137 -255.37835 C -518.04137 -260.3489 -514.0119 -264.37835 -509.04137 -264.37835 Z" fill="#c0ffc0"/>
        <path d="M -509.04137 -264.37835 L -379.7738 -264.37835 C -374.80323 -264.37835 -370.7738 -260.3489 -370.7738 -255.37835 L -370.7738 -211.37835 C -370.7738 -206.40778 -374.80323 -202.37835 -379.7738 -202.37835 L -509.04137 -202.37835 C -514.0119 -202.37835 -518.04137 -206.40778 -518.04137 -211.37835 L -518.04137 -255.37835 C -518.04137 -260.3489 -514.0119 -264.37835 -509.04137 -264.37835 Z" stroke="gray" stroke-linecap="round" stroke-linejoin="round" stroke-width="1"/>
        <text transform="translate(-513.04137 -247.37835)" fill="black">
          <tspan font-family="Menlo" font-size="12" fill="black" x="28.898438" y="11" xml:space="preserve">Persistence</tspan>
          <tspan font-family="Menlo" font-size="12" fill="black" x="43.347656" y="25" xml:space="preserve">Service</tspan>
        </text>
      </g>
      <g id="Graphic_246">
        <path d="M -784.7975 -712.2371 L -422.47306 -712.2371 C -417.5025 -712.2371 -413.47306 -708.2077 -413.47306 -703.2371 L -413.47306 -499.51295 C -413.47306 -494.5424 -417.5025 -490.51295 -422.47306 -490.51295 L -784.7975 -490.51295 C -789.7681 -490.51295 -793.7975 -494.5424 -793.7975 -499.51295 L -793.7975 -703.2371 C -793.7975 -708.2077 -789.7681 -712.2371 -784.7975 -712.2371 Z" stroke="gray" stroke-linecap="round" stroke-linejoin="round" stroke-width="2"/>
      </g>
      <g id="Graphic_245">
        <path d="M -384.3101 -711.2327 L -233.94466 -711.2327 C -228.9741 -711.2327 -224.94466 -707.2033 -224.94466 -702.2327 L -224.94466 -499.51295 C -224.94466 -494.5424 -228.9741 -490.51295 -233.94466 -490.51295 L -384.3101 -490.51295 C -389.28066 -490.51295 -393.3101 -494.5424 -393.3101 -499.51295 L -393.3101 -702.2327 C -393.3101 -707.2033 -389.28066 -711.2327 -384.3101 -711.2327 Z" stroke="gray" stroke-linecap="round" stroke-linejoin="round" stroke-width="2"/>
      </g>
      <g id="Graphic_244">
        <path d="M -754.1311 -577.8047 L -635.91724 -577.8047 C -630.9467 -577.8047 -626.91724 -573.7753 -626.91724 -568.8047 L -626.91724 -524.8047 C -626.91724 -519.83415 -630.9467 -515.8047 -635.91724 -515.8047 L -754.1311 -515.8047 C -759.1017 -515.8047 -763.1311 -519.83415 -763.1311 -524.8047 L -763.1311 -568.8047 C -763.1311 -573.7753 -759.1017 -577.8047 -754.1311 -577.8047 Z" fill="#c0ffc0"/>
        <path d="M -754.1311 -577.8047 L -635.91724 -577.8047 C -630.9467 -577.8047 -626.91724 -573.7753 -626.91724 -568.8047 L -626.91724 -524.8047 C -626.91724 -519.83415 -630.9467 -515.8047 -635.91724 -515.8047 L -754.1311 -515.8047 C -759.1017 -515.8047 -763.1311 -519.83415 -763.1311 -524.8047 L -763.1311 -568.8047 C -763.1311 -573.7753 -759.1017 -577.8047 -754.1311 -577.8047 Z" stroke="gray" stroke-linecap="round" stroke-linejoin="round" stroke-width="1"/>
        <text transform="translate(-758.1311 -560.8047)" fill="black">
          <tspan font-family="Menlo" font-size="12" fill="black" x="41.433105" y="11" xml:space="preserve">Device</tspan>
          <tspan font-family="Menlo" font-size="12" fill="black" x="26.983887" y="25" xml:space="preserve">Controller</tspan>
        </text>
      </g>
      <g id="Graphic_243">
        <path d="M -357.43866 -588.3342 L -256.43866 -588.3342 C -251.4681 -588.3342 -247.43866 -584.3048 -247.43866 -579.3342 L -247.43866 -535.3342 C -247.43866 -530.36365 -251.4681 -526.3342 -256.43866 -526.3342 L -357.43866 -526.3342 C -362.40922 -526.3342 -366.43866 -530.36365 -366.43866 -535.3342 L -366.43866 -579.3342 C -366.43866 -584.3048 -362.40922 -588.3342 -357.43866 -588.3342 Z" fill="#c0ffc0"/>
        <path d="M -357.43866 -588.3342 L -256.43866 -588.3342 C -251.4681 -588.3342 -247.43866 -584.3048 -247.43866 -579.3342 L -247.43866 -535.3342 C -247.43866 -530.36365 -251.4681 -526.3342 -256.43866 -526.3342 L -357.43866 -526.3342 C -362.40922 -526.3342 -366.43866 -530.36365 -366.43866 -535.3342 L -366.43866 -579.3342 C -366.43866 -584.3048 -362.40922 -588.3342 -357.43866 -588.3342 Z" stroke="gray" stroke-linecap="round" stroke-linejoin="round" stroke-width="1"/>
        <text transform="translate(-361.43866 -564.3342)" fill="black">
          <tspan font-family="Menlo" font-size="12" fill="black" x="14.764648" y="11" xml:space="preserve">DataManager</tspan>
        </text>
      </g>
      <g id="Graphic_242">
        <path d="M -361.8161 -668.2803 L -260.8161 -668.2803 C -255.84554 -668.2803 -251.8161 -664.25084 -251.8161 -659.2803 L -251.8161 -615.2803 C -251.8161 -610.3097 -255.84554 -606.2803 -260.8161 -606.2803 L -361.8161 -606.2803 C -366.78666 -606.2803 -370.8161 -610.3097 -370.8161 -615.2803 L -370.8161 -659.2803 C -370.8161 -664.25084 -366.78666 -668.2803 -361.8161 -668.2803 Z" fill="#c0ffc0"/>
        <path d="M -361.8161 -668.2803 L -260.8161 -668.2803 C -255.84554 -668.2803 -251.8161 -664.25084 -251.8161 -659.2803 L -251.8161 -615.2803 C -251.8161 -610.3097 -255.84554 -606.2803 -260.8161 -606.2803 L -361.8161 -606.2803 C -366.78666 -606.2803 -370.8161 -610.3097 -370.8161 -615.2803 L -370.8161 -659.2803 C -370.8161 -664.25084 -366.78666 -668.2803 -361.8161 -668.2803 Z" stroke="gray" stroke-linecap="round" stroke-linejoin="round" stroke-width="1"/>
        <text transform="translate(-365.8161 -651.2803)" fill="black">
          <tspan font-family="Menlo" font-size="12" fill="black" x="18.376953" y="11" xml:space="preserve">Deployment</tspan>
          <tspan font-family="Menlo" font-size="12" fill="black" x="25.601562" y="25" xml:space="preserve">Executor</tspan>
        </text>
      </g>
      <g id="Graphic_241">
        <text transform="translate(-782.4052 -701.2475)" fill="#797979">
          <tspan font-family="Menlo" font-weight="bold" font-size="12" fill="#797979" x="0" y="11" xml:space="preserve">Client Manager</tspan>
        </text>
      </g>
      <g id="Graphic_240">
        <path d="M -754.1311 -668.2803 L -635.91724 -668.2803 C -630.9467 -668.2803 -626.91724 -664.25084 -626.91724 -659.2803 L -626.91724 -615.2803 C -626.91724 -610.3097 -630.9467 -606.2803 -635.91724 -606.2803 L -754.1311 -606.2803 C -759.1017 -606.2803 -763.1311 -610.3097 -763.1311 -615.2803 L -763.1311 -659.2803 C -763.1311 -664.25084 -759.1017 -668.2803 -754.1311 -668.2803 Z" fill="#c0ffc0"/>
        <path d="M -754.1311 -668.2803 L -635.91724 -668.2803 C -630.9467 -668.2803 -626.91724 -664.25084 -626.91724 -659.2803 L -626.91724 -615.2803 C -626.91724 -610.3097 -630.9467 -606.2803 -635.91724 -606.2803 L -754.1311 -606.2803 C -759.1017 -606.2803 -763.1311 -610.3097 -763.1311 -615.2803 L -763.1311 -659.2803 C -763.1311 -664.25084 -759.1017 -668.2803 -754.1311 -668.2803 Z" stroke="gray" stroke-linecap="round" stroke-linejoin="round" stroke-width="1"/>
        <text transform="translate(-758.1311 -651.2803)" fill="black">
          <tspan font-family="Menlo" font-size="12" fill="black" x="26.983887" y="11" xml:space="preserve">Deployment</tspan>
          <tspan font-family="Menlo" font-size="12" fill="black" x="37.8208" y="25" xml:space="preserve">Service</tspan>
        </text>
      </g>
      <g id="Group_236">
        <g id="Graphic_239">
          <path d="M -554.13946 -564.0276 L -453.13946 -564.0276 C -448.1689 -564.0276 -444.13946 -559.99816 -444.13946 -555.0276 L -444.13946 -511.0276 C -444.13946 -506.05703 -448.1689 -502.0276 -453.13946 -502.0276 L -554.13946 -502.0276 C -559.11 -502.0276 -563.13946 -506.05703 -563.13946 -511.0276 L -563.13946 -555.0276 C -563.13946 -559.99816 -559.11 -564.0276 -554.13946 -564.0276 Z" fill="#c0ffc0"/>
          <path d="M -554.13946 -564.0276 L -453.13946 -564.0276 C -448.1689 -564.0276 -444.13946 -559.99816 -444.13946 -555.0276 L -444.13946 -511.0276 C -444.13946 -506.05703 -448.1689 -502.0276 -453.13946 -502.0276 L -554.13946 -502.0276 C -559.11 -502.0276 -563.13946 -506.05703 -563.13946 -511.0276 L -563.13946 -555.0276 C -563.13946 -559.99816 -559.11 -564.0276 -554.13946 -564.0276 Z" stroke="gray" stroke-linecap="round" stroke-linejoin="round" stroke-width="1"/>
          <text transform="translate(-558.13946 -547.0276)" fill="black">
            <tspan font-family="Menlo" font-size="12" fill="black" x="36.438477" y="11" xml:space="preserve">Study</tspan>
            <tspan font-family="Menlo" font-size="12" fill="black" x="18.376953" y="25" xml:space="preserve">Controller</tspan>
          </text>
        </g>
        <g id="Graphic_238">
          <path d="M -567.4832 -576.1721 L -466.4832 -576.1721 C -461.51265 -576.1721 -457.4832 -572.1427 -457.4832 -567.1721 L -457.4832 -523.1721 C -457.4832 -518.20157 -461.51265 -514.1721 -466.4832 -514.1721 L -567.4832 -514.1721 C -572.4538 -514.1721 -576.4832 -518.20157 -576.4832 -523.1721 L -576.4832 -567.1721 C -576.4832 -572.1427 -572.4538 -576.1721 -567.4832 -576.1721 Z" fill="#c0ffc0"/>
          <path d="M -567.4832 -576.1721 L -466.4832 -576.1721 C -461.51265 -576.1721 -457.4832 -572.1427 -457.4832 -567.1721 L -457.4832 -523.1721 C -457.4832 -518.20157 -461.51265 -514.1721 -466.4832 -514.1721 L -567.4832 -514.1721 C -572.4538 -514.1721 -576.4832 -518.20157 -576.4832 -523.1721 L -576.4832 -567.1721 C -576.4832 -572.1427 -572.4538 -576.1721 -567.4832 -576.1721 Z" stroke="gray" stroke-linecap="round" stroke-linejoin="round" stroke-width="1"/>
          <text transform="translate(-571.4832 -559.1721)" fill="black">
            <tspan font-family="Menlo" font-size="12" fill="black" x="36.438477" y="11" xml:space="preserve">Study</tspan>
            <tspan font-family="Menlo" font-size="12" fill="black" x="18.376953" y="25" xml:space="preserve">Controller</tspan>
          </text>
        </g>
        <g id="Graphic_237">
          <path d="M -583.2919 -588.3004 L -482.2919 -588.3004 C -477.32136 -588.3004 -473.2919 -584.271 -473.2919 -579.3004 L -473.2919 -535.3004 C -473.2919 -530.32986 -477.32136 -526.3004 -482.2919 -526.3004 L -583.2919 -526.3004 C -588.2625 -526.3004 -592.2919 -530.32986 -592.2919 -535.3004 L -592.2919 -579.3004 C -592.2919 -584.271 -588.2625 -588.3004 -583.2919 -588.3004 Z" fill="#c0ffc0"/>
          <path d="M -583.2919 -588.3004 L -482.2919 -588.3004 C -477.32136 -588.3004 -473.2919 -584.271 -473.2919 -579.3004 L -473.2919 -535.3004 C -473.2919 -530.32986 -477.32136 -526.3004 -482.2919 -526.3004 L -583.2919 -526.3004 C -588.2625 -526.3004 -592.2919 -530.32986 -592.2919 -535.3004 L -592.2919 -579.3004 C -592.2919 -584.271 -588.2625 -588.3004 -583.2919 -588.3004 Z" stroke="gray" stroke-linecap="round" stroke-linejoin="round" stroke-width="1"/>
          <text transform="translate(-587.2919 -564.3004)" fill="black">
            <tspan font-family="Menlo" font-size="12" fill="black" x="36.438477" y="11" xml:space="preserve">Study</tspan>
          </text>
        </g>
      </g>
      <g id="Graphic_235">
        <path d="M -568.7157 -668.2803 L -467.7157 -668.2803 C -462.74513 -668.2803 -458.7157 -664.25084 -458.7157 -659.2803 L -458.7157 -615.2803 C -458.7157 -610.3097 -462.74513 -606.2803 -467.7157 -606.2803 L -568.7157 -606.2803 C -573.68625 -606.2803 -577.7157 -610.3097 -577.7157 -615.2803 L -577.7157 -659.2803 C -577.7157 -664.25084 -573.68625 -668.2803 -568.7157 -668.2803 Z" fill="#c0ffc0"/>
        <path d="M -568.7157 -668.2803 L -467.7157 -668.2803 C -462.74513 -668.2803 -458.7157 -664.25084 -458.7157 -659.2803 L -458.7157 -615.2803 C -458.7157 -610.3097 -462.74513 -606.2803 -467.7157 -606.2803 L -568.7157 -606.2803 C -573.68625 -606.2803 -577.7157 -610.3097 -577.7157 -615.2803 L -577.7157 -659.2803 C -577.7157 -664.25084 -573.68625 -668.2803 -568.7157 -668.2803 Z" stroke="gray" stroke-linecap="round" stroke-linejoin="round" stroke-width="1"/>
        <text transform="translate(-572.7157 -651.2803)" fill="black">
          <tspan font-family="Menlo" font-size="12" fill="black" x="32.82617" y="11" xml:space="preserve">Client</tspan>
          <tspan font-family="Menlo" font-size="12" fill="black" x="18.376953" y="25" xml:space="preserve">Repository</tspan>
        </text>
      </g>
      <g id="Graphic_233">
        <text transform="translate(-382.9167 -701.2475)" fill="#797979">
          <tspan font-family="Menlo" font-weight="bold" font-size="12" fill="#797979" x="0" y="11" xml:space="preserve">Study Controller</tspan>
        </text>
      </g>
      <g id="Graphic_232">
        <path d="M -185.7817 -710.22825 L 52.83261 -710.22825 C 63.32602 -710.22825 71.83261 -701.7217 71.83261 -691.22825 L 71.83261 -507.5041 C 71.83261 -497.01066 63.32602 -488.5041 52.83261 -488.5041 L -185.7817 -488.5041 C -196.2751 -488.5041 -204.7817 -497.01066 -204.7817 -507.5041 L -204.7817 -691.22825 C -204.7817 -701.7217 -196.2751 -710.22825 -185.7817 -710.22825 Z" stroke="gray" stroke-linecap="round" stroke-linejoin="round" stroke-width="2"/>
      </g>
      <g id="Graphic_231">
        <text transform="translate(-189.34911 -701.2475)" fill="#797979">
          <tspan font-family="Menlo" font-weight="bold" font-size="12" fill="#797979" x="0" y="11" xml:space="preserve">Device Managers</tspan>
        </text>
      </g>
      <g id="Graphic_230">
        <path d="M -179.12454 -663.2803 L -91.20454 -663.2803 C -86.23398 -663.2803 -82.20454 -659.25084 -82.20454 -654.2803 L -82.20454 -620.2803 C -82.20454 -615.3097 -86.23398 -611.2803 -91.20454 -611.2803 L -179.12454 -611.2803 C -184.0951 -611.2803 -188.12454 -615.3097 -188.12454 -620.2803 L -188.12454 -654.2803 C -188.12454 -659.25084 -184.0951 -663.2803 -179.12454 -663.2803 Z" fill="#c0ffc0"/>
        <path d="M -179.12454 -663.2803 L -91.20454 -663.2803 C -86.23398 -663.2803 -82.20454 -659.25084 -82.20454 -654.2803 L -82.20454 -620.2803 C -82.20454 -615.3097 -86.23398 -611.2803 -91.20454 -611.2803 L -179.12454 -611.2803 C -184.0951 -611.2803 -188.12454 -615.3097 -188.12454 -620.2803 L -188.12454 -654.2803 C -188.12454 -659.25084 -184.0951 -663.2803 -179.12454 -663.2803 Z" stroke="gray" stroke-linecap="round" stroke-linejoin="round" stroke-width="1"/>
        <text transform="translate(-183.12454 -651.2803)" fill="black">
          <tspan font-family="Menlo" font-size="12" fill="black" x="11.836952" y="11" xml:space="preserve">Smartphone</tspan>
          <tspan font-family="Menlo" font-size="12" fill="black" x="1.0000381" y="25" xml:space="preserve">DeviceManager</tspan>
        </text>
      </g>
      <g id="Graphic_229">
        <path d="M -41.744543 -578.3342 L 46.17546 -578.3342 C 51.14602 -578.3342 55.17546 -574.3048 55.17546 -569.3342 L 55.17546 -535.3342 C 55.17546 -530.36365 51.14602 -526.3342 46.17546 -526.3342 L -41.744543 -526.3342 C -46.715105 -526.3342 -50.74454 -530.36365 -50.74454 -535.3342 L -50.74454 -569.3342 C -50.74454 -574.3048 -46.715105 -578.3342 -41.744543 -578.3342 Z" fill="#c0c0ff"/>
        <path d="M -41.744543 -578.3342 L 46.17546 -578.3342 C 51.14602 -578.3342 55.17546 -574.3048 55.17546 -569.3342 L 55.17546 -535.3342 C 55.17546 -530.36365 51.14602 -526.3342 46.17546 -526.3342 L -41.744543 -526.3342 C -46.715105 -526.3342 -50.74454 -530.36365 -50.74454 -535.3342 L -50.74454 -569.3342 C -50.74454 -574.3048 -46.715105 -578.3342 -41.744543 -578.3342 Z" stroke="gray" stroke-linecap="round" stroke-linejoin="round" stroke-width="1"/>
        <text transform="translate(-45.74454 -566.3342)" fill="black">
          <tspan font-family="Menlo" font-size="12" fill="black" x="19.061562" y="11" xml:space="preserve">Location</tspan>
          <tspan font-family="Menlo" font-size="12" fill="black" x="22.673866" y="25" xml:space="preserve">Manager</tspan>
        </text>
      </g>
      <g id="Graphic_228">
        <path d="M -179.12454 -578.3342 L -91.20454 -578.3342 C -86.23398 -578.3342 -82.20454 -574.3048 -82.20454 -569.3342 L -82.20454 -535.3342 C -82.20454 -530.36365 -86.23398 -526.3342 -91.20454 -526.3342 L -179.12454 -526.3342 C -184.0951 -526.3342 -188.12454 -530.36365 -188.12454 -535.3342 L -188.12454 -569.3342 C -188.12454 -574.3048 -184.0951 -578.3342 -179.12454 -578.3342 Z" fill="#c0ffc0"/>
        <path d="M -179.12454 -578.3342 L -91.20454 -578.3342 C -86.23398 -578.3342 -82.20454 -574.3048 -82.20454 -569.3342 L -82.20454 -535.3342 C -82.20454 -530.36365 -86.23398 -526.3342 -91.20454 -526.3342 L -179.12454 -526.3342 C -184.0951 -526.3342 -188.12454 -530.36365 -188.12454 -535.3342 L -188.12454 -569.3342 C -188.12454 -574.3048 -184.0951 -578.3342 -179.12454 -578.3342 Z" stroke="gray" stroke-linecap="round" stroke-linejoin="round" stroke-width="1"/>
        <text transform="translate(-183.12454 -566.3342)" fill="black">
          <tspan font-family="Menlo" font-size="12" fill="black" x="15.449257" y="11" xml:space="preserve">BLEDevice</tspan>
          <tspan font-family="Menlo" font-size="12" fill="black" x="22.673866" y="25" xml:space="preserve">Manager</tspan>
        </text>
      </g>
      <g id="Graphic_227">
        <path d="M -41.744543 -661.7324 L 46.17546 -661.7324 C 51.14602 -661.7324 55.17546 -657.7029 55.17546 -652.7324 L 55.17546 -618.7324 C 55.17546 -613.7618 51.14602 -609.73236 46.17546 -609.73236 L -41.744543 -609.73236 C -46.715105 -609.73236 -50.74454 -613.7618 -50.74454 -618.7324 L -50.74454 -652.7324 C -50.74454 -657.7029 -46.715105 -661.7324 -41.744543 -661.7324 Z" fill="#c0c0ff"/>
        <path d="M -41.744543 -661.7324 L 46.17546 -661.7324 C 51.14602 -661.7324 55.17546 -657.7029 55.17546 -652.7324 L 55.17546 -618.7324 C 55.17546 -613.7618 51.14602 -609.73236 46.17546 -609.73236 L -41.744543 -609.73236 C -46.715105 -609.73236 -50.74454 -613.7618 -50.74454 -618.7324 L -50.74454 -652.7324 C -50.74454 -657.7029 -46.715105 -661.7324 -41.744543 -661.7324 Z" stroke="gray" stroke-linecap="round" stroke-linejoin="round" stroke-width="1"/>
        <text transform="translate(-45.74454 -649.7324)" fill="black">
          <tspan font-family="Menlo" font-size="12" fill="black" x="26.28617" y="11" xml:space="preserve">eSense</tspan>
          <tspan font-family="Menlo" font-size="12" fill="black" x="1.0000381" y="25" xml:space="preserve">DeviceManager</tspan>
        </text>
      </g>
      <g id="Graphic_247">
        <rect x="-781.3316" y="303.80476" width="105.92" height="34.619266" fill="#ffffc0"/>
        <rect x="-781.3316" y="303.80476" width="105.92" height="34.619266" stroke="gray" stroke-linecap="round" stroke-linejoin="round" stroke-width="1"/>
        <text transform="translate(-776.3316 314.1144)" fill="black">
          <tspan font-family="Menlo" font-size="12" fill="black" x="26.28617" y="11" xml:space="preserve">SQLite</tspan>
        </text>
      </g>
      <g id="Graphic_248">
        <rect x="-658.4262" y="342.6957" width="105.92" height="34.619266" fill="#ffffc0"/>
        <rect x="-658.4262" y="342.6957" width="105.92" height="34.619266" stroke="gray" stroke-linecap="round" stroke-linejoin="round" stroke-width="1"/>
        <text transform="translate(-653.4262 353.0053)" fill="black">
          <tspan font-family="Menlo" font-size="12" fill="black" x="15.449257" y="11" xml:space="preserve">telephony</tspan>
        </text>
      </g>
      <g id="Graphic_249">
        <path d="M -740.8886 115.08281 L -652.9686 115.08281 C -647.9981 115.08281 -643.9686 119.11225 -643.9686 124.08281 L -643.9686 131.08281 C -643.9686 136.05338 -647.9981 140.08281 -652.9686 140.08281 L -740.8886 140.08281 C -745.8592 140.08281 -749.8886 136.05338 -749.8886 131.08281 L -749.8886 124.08281 C -749.8886 119.11225 -745.8592 115.08281 -740.8886 115.08281 Z" fill="#8080ff"/>
        <path d="M -740.8886 115.08281 L -652.9686 115.08281 C -647.9981 115.08281 -643.9686 119.11225 -643.9686 124.08281 L -643.9686 131.08281 C -643.9686 136.05338 -647.9981 140.08281 -652.9686 140.08281 L -740.8886 140.08281 C -745.8592 140.08281 -749.8886 136.05338 -749.8886 131.08281 L -749.8886 124.08281 C -749.8886 119.11225 -745.8592 115.08281 -740.8886 115.08281 Z" stroke="gray" stroke-linecap="round" stroke-linejoin="round" stroke-width="1"/>
        <text transform="translate(-744.8886 120.58281)" fill="black">
          <tspan font-family="Menlo" font-size="12" fill="black" x="22.673866" y="11" xml:space="preserve">sqflite</tspan>
        </text>
      </g>
      <g id="Graphic_250">
        <path d="M -740.8886 164.73739 L -590.5232 164.73739 C -585.5526 164.73739 -581.5232 168.76682 -581.5232 173.73739 L -581.5232 190.35665 C -581.5232 195.32722 -585.5526 199.35665 -590.5232 199.35665 L -740.8886 199.35665 C -745.8592 199.35665 -749.8886 195.32722 -749.8886 190.35665 L -749.8886 173.73739 C -749.8886 168.76682 -745.8592 164.73739 -740.8886 164.73739 Z" fill="#8080ff"/>
        <path d="M -740.8886 164.73739 L -590.5232 164.73739 C -585.5526 164.73739 -581.5232 168.76682 -581.5232 173.73739 L -581.5232 190.35665 C -581.5232 195.32722 -585.5526 199.35665 -590.5232 199.35665 L -740.8886 199.35665 C -745.8592 199.35665 -749.8886 195.32722 -749.8886 190.35665 L -749.8886 173.73739 C -749.8886 168.76682 -745.8592 164.73739 -740.8886 164.73739 Z" stroke="gray" stroke-linecap="round" stroke-linejoin="round" stroke-width="1"/>
        <text transform="translate(-744.8886 168.04702)" fill="black">
          <tspan font-family="Menlo" font-size="12" fill="black" x="28.61045" y="11" xml:space="preserve">flutter_local_</tspan>
          <tspan font-family="Menlo" font-size="12" fill="black" x="32.222755" y="25" xml:space="preserve">notifications</tspan>
        </text>
      </g>
      <g id="Graphic_251">
        <path d="M -580.3762 115.08281 L -492.45623 115.08281 C -487.48567 115.08281 -483.45623 119.11225 -483.45623 124.08281 L -483.45623 140.70208 C -483.45623 145.67264 -487.48567 149.70208 -492.45623 149.70208 L -580.3762 149.70208 C -585.3468 149.70208 -589.3762 145.67264 -589.3762 140.70208 L -589.3762 124.08281 C -589.3762 119.11225 -585.3468 115.08281 -580.3762 115.08281 Z" fill="#8080ff"/>
        <path d="M -580.3762 115.08281 L -492.45623 115.08281 C -487.48567 115.08281 -483.45623 119.11225 -483.45623 124.08281 L -483.45623 140.70208 C -483.45623 145.67264 -487.48567 149.70208 -492.45623 149.70208 L -580.3762 149.70208 C -585.3468 149.70208 -589.3762 145.67264 -589.3762 140.70208 L -589.3762 124.08281 C -589.3762 119.11225 -585.3468 115.08281 -580.3762 115.08281 Z" stroke="gray" stroke-linecap="round" stroke-linejoin="round" stroke-width="1"/>
        <text transform="translate(-584.3762 118.39245)" fill="black">
          <tspan font-family="Menlo" font-size="12" fill="black" x="19.061562" y="11" xml:space="preserve">flutter_</tspan>
          <tspan font-family="Menlo" font-size="12" fill="black" x="11.836952" y="25" xml:space="preserve">background</tspan>
        </text>
      </g>
      <g id="Graphic_252">
        <path d="M -373.7817 188.03407 L -285.8617 188.03407 C -280.89115 188.03407 -276.8617 192.0635 -276.8617 197.03407 L -276.8617 204.03407 C -276.8617 209.00464 -280.89115 213.03407 -285.8617 213.03407 L -373.7817 213.03407 C -378.75227 213.03407 -382.7817 209.00464 -382.7817 204.03407 L -382.7817 197.03407 C -382.7817 192.0635 -378.75227 188.03407 -373.7817 188.03407 Z" fill="#8080ff"/>
        <path d="M -373.7817 188.03407 L -285.8617 188.03407 C -280.89115 188.03407 -276.8617 192.0635 -276.8617 197.03407 L -276.8617 204.03407 C -276.8617 209.00464 -280.89115 213.03407 -285.8617 213.03407 L -373.7817 213.03407 C -378.75227 213.03407 -382.7817 209.00464 -382.7817 204.03407 L -382.7817 197.03407 C -382.7817 192.0635 -378.75227 188.03407 -373.7817 188.03407 Z" stroke="gray" stroke-linecap="round" stroke-linejoin="round" stroke-width="1"/>
        <text transform="translate(-377.7817 193.53407)" fill="black">
          <tspan font-family="Menlo" font-size="12" fill="black" x="4.612343" y="11" xml:space="preserve">screen_state</tspan>
        </text>
      </g>
      <g id="Graphic_253">
        <text transform="translate(-809.4468 -744.21475)" fill="#797979">
          <tspan font-family="Menlo" font-weight="bold" font-size="16" fill="#797979" x="0" y="15" xml:space="preserve">Runtime</tspan>
        </text>
      </g>
      <g id="Graphic_255">
        <rect x="-287.02493" y="498.9021" width="35.972222" height="20.154" fill="#ffffc0"/>
        <rect x="-287.02493" y="498.9021" width="35.972222" height="20.154" stroke="gray" stroke-linecap="round" stroke-linejoin="round" stroke-width="1"/>
        <text transform="translate(-282.02493 501.9791)" fill="black">
          <tspan font-family="Menlo" font-size="12" fill="black" x="9.373806" y="11" xml:space="preserve">…</tspan>
        </text>
      </g>
      <g id="Graphic_256">
        <path d="M -98.80254 -467.55125 L 19.411323 -467.55125 C 24.381885 -467.55125 28.411323 -463.5218 28.411323 -458.55125 L 28.411323 -414.55125 C 28.411323 -409.5807 24.381885 -405.55125 19.411323 -405.55125 L -98.80254 -405.55125 C -103.77311 -405.55125 -107.80254 -409.5807 -107.80254 -414.55125 L -107.80254 -458.55125 C -107.80254 -463.5218 -103.77311 -467.55125 -98.80254 -467.55125 Z" fill="#c0ffc0"/>
        <path d="M -98.80254 -467.55125 L 19.411323 -467.55125 C 24.381885 -467.55125 28.411323 -463.5218 28.411323 -458.55125 L 28.411323 -414.55125 C 28.411323 -409.5807 24.381885 -405.55125 19.411323 -405.55125 L -98.80254 -405.55125 C -103.77311 -405.55125 -107.80254 -409.5807 -107.80254 -414.55125 L -107.80254 -458.55125 C -107.80254 -463.5218 -103.77311 -467.55125 -98.80254 -467.55125 Z" stroke="gray" stroke-linecap="round" stroke-linejoin="round" stroke-width="1"/>
        <text transform="translate(-102.80254 -450.55125)" fill="black">
          <tspan font-family="Menlo" font-size="12" fill="black" x="8.922363" y="11" xml:space="preserve">DataTransformer</tspan>
          <tspan font-family="Menlo" font-size="12" fill="black" x="12.534668" y="25" xml:space="preserve">SchemaRegistry</tspan>
        </text>
      </g>
    </g>
  </g>
</svg>
