<svg width="318" height="55" viewBox="0 0 318 55" fill="none" xmlns="http://www.w3.org/2000/svg">
<g clip-path="url(#clip0_4455_1347)">
<path d="M76.9766 1.91846H51.3137H25.6508V27.9744C25.6508 42.3585 37.1345 54.0303 51.3137 54.0303H76.9766C91.1438 54.0303 102.64 42.3708 102.64 27.9744C102.64 13.5902 91.1559 1.91846 76.9766 1.91846V1.91846Z" fill="#D61D41"/>
<path d="M25.6629 27.9744C25.6629 13.5902 14.1672 1.91846 0 1.91846V54.0303C14.1672 54.0303 25.6629 42.3708 25.6629 27.9744Z" fill="#D61D41"/>
<path d="M158.801 0.948975C171.348 0.948975 177.803 8.09195 177.803 8.09195L173.306 15.1613C173.306 15.1613 167.431 9.63837 159.236 9.63837C148.356 9.63837 141.974 17.8859 141.974 27.6063C141.974 37.3266 148.574 46.3106 159.308 46.3106C168.229 46.3106 174.249 39.6831 174.249 39.6831L179.181 46.5315C179.181 46.5315 172.073 55 158.946 55C143.207 55 132.328 43.1441 132.328 27.7536C132.328 12.363 143.642 0.948975 158.801 0.948975Z" fill="#006398"/>
<path d="M213.414 40.7141H195.355L191.003 54.1164H181.357L199.489 1.83276H209.28L227.412 54.1164H217.766L213.414 40.7141ZM204.348 10.8904C204.348 10.8904 203.188 16.0451 202.172 18.9906L197.603 32.982H211.093L206.524 18.9906C205.581 16.0451 204.493 10.8904 204.493 10.8904H204.348V10.8904Z" fill="#006398"/>
<path d="M234.012 1.83276H250.621C256.206 1.83276 258.744 2.2746 260.993 3.30554C266.142 5.66199 269.406 10.6694 269.406 17.5915C269.406 23.8508 266.142 29.6683 260.703 31.8775V32.0247C260.703 32.0247 261.428 32.7611 262.443 34.6021L273.033 54.1164H262.588L252.362 34.6021H243.368V54.1164H234.012V1.83276ZM251.782 26.3545C256.786 26.3545 259.905 23.3353 259.905 18.107C259.905 12.8786 257.802 10.0067 250.476 10.0067H243.368V26.3545H251.782V26.3545Z" fill="#006398"/>
<path d="M281.736 1.83276H301.609C311.255 1.83276 318 8.68119 318 18.8434C318 29.0055 311.255 36.0749 301.609 36.0749H291.092V54.1164H281.736V1.83276ZM299.868 27.8273C305.308 27.8273 308.499 24.2926 308.499 18.8434C308.499 13.3941 305.308 10.0067 300.013 10.0067H291.092V27.8273H299.868V27.8273Z" fill="#006398"/>
<path d="M88.0682 24.2798H78.6758V14.7559H71.4109V24.2798H62.0185V31.656H71.4109V41.1922H78.6758V31.656H88.0682V24.2798Z" fill="white"/>
</g>
<defs>
<clipPath id="clip0_4455_1347">
<rect width="318" height="54.051" fill="white" transform="translate(0 0.948975)"/>
</clipPath>
</defs>
</svg>
