<svg width="38" height="20" viewBox="0 0 38 20" fill="none" xmlns="http://www.w3.org/2000/svg">
<path d="M28.4426 0H18.9603H9.47791V9.64124C9.47791 14.9637 13.7211 19.2825 18.9603 19.2825H28.4426C33.6774 19.2825 37.925 14.9682 37.925 9.64124C37.925 4.3188 33.6818 0 28.4426 0V0Z" fill="#D61D41"/>
<path d="M9.48236 9.64124C9.48236 4.3188 5.23473 0 0 0V19.2825C5.23473 19.2825 9.48236 14.9682 9.48236 9.64124Z" fill="#D61D41"/>
<path d="M32.5409 8.27407H29.0705V4.75H26.3861V8.27407H22.9156V11.0034H26.3861V14.532H29.0705V11.0034H32.5409V8.27407Z" fill="white"/>
<path d="M28.4426 0H18.9603H9.47791V9.64124C9.47791 14.9637 13.7211 19.2825 18.9603 19.2825H28.4426C33.6774 19.2825 37.925 14.9682 37.925 9.64124C37.925 4.3188 33.6818 0 28.4426 0V0Z" fill="#D61D41"/>
<path d="M9.48236 9.64124C9.48236 4.3188 5.23473 0 0 0V19.2825C5.23473 19.2825 9.48236 14.9682 9.48236 9.64124Z" fill="#D61D41"/>
<path d="M32.5409 8.27407H29.0705V4.75H26.3861V8.27407H22.9156V11.0034H26.3861V14.532H29.0705V11.0034H32.5409V8.27407Z" fill="white"/>
</svg>
